<svg xmlns="http://www.w3.org/2000/svg" viewBox="0 0 500 400" width="500" height="400">
  <g fill="none" stroke="rgba(5,64,45,0.15)" stroke-width="1.8" stroke-linecap="round" stroke-linejoin="round">

    <!-- AVOCADO large -->
    <g transform="translate(75,75) rotate(-15)">
      <path d="M0,-30 C14,-30 24,-18 24,0 C24,16 14,28 0,30 C-14,28 -24,16 -24,0 C-24,-18 -14,-30 0,-30 Z"/>
      <path d="M0,-12 C8,-12 14,-6 14,4 C14,14 8,20 0,21 C-8,20 -14,14 -14,4 C-14,-6 -8,-12 0,-12 Z"/>
      <ellipse cx="0" cy="11" rx="5" ry="6"/>
      <path d="M0,-30 L1,-36 Q4,-39 6,-37"/>
    </g>

    <!-- BANANA large -->
    <g transform="translate(355,58) rotate(22)">
      <path d="M-24,10 C-26,-10 -14,-28 2,-32 C18,-34 30,-22 32,-10 C34,0 26,12 14,16"/>
      <path d="M-24,10 C-16,20 0,22 14,16"/>
      <path d="M-24,10 C-26,8 -26,14 -24,10"/>
      <path d="M14,16 C16,18 18,14 14,16"/>
    </g>

    <!-- BROCCOLI large -->
    <g transform="translate(245,52) rotate(6)">
      <circle cx="0" cy="-14" r="11"/>
      <circle cx="-13" cy="-4" r="11"/>
      <circle cx="13" cy="-4" r="11"/>
      <circle cx="-21" cy="4" r="7.5"/>
      <circle cx="21" cy="4" r="7.5"/>
      <path d="M-10,8 L-12,32 Q-12,36 -6,36 L6,36 Q12,36 12,32 L10,8"/>
    </g>

    <!-- APPLE large -->
    <g transform="translate(446,158) rotate(-12)">
      <path d="M-4,-18 C-14,-18 -22,-10 -22,2 C-22,16 -12,24 0,24 C12,24 22,16 22,2 C22,-10 14,-18 4,-18 Q2,-22 0,-20 Q-2,-22 -4,-18"/>
      <path d="M1,-20 L2,-27"/>
      <path d="M2,-26 Q8,-29 9,-23 Q5,-21 2,-26"/>
    </g>

    <!-- CARROT large -->
    <g transform="translate(128,248) rotate(12)">
      <path d="M-11,-22 Q-10,0 0,28 Q10,0 11,-22 Q0,-24 -11,-22 Z"/>
      <path d="M-9,-12 Q0,-14 9,-12"/>
      <path d="M-7,0 Q0,-2 7,0"/>
      <path d="M-4,12 Q0,10 4,12"/>
      <path d="M-2,-22 C-6,-32 -14,-36 -8,-42"/>
      <path d="M0,-22 C0,-34 0,-40 0,-44"/>
      <path d="M2,-22 C6,-32 14,-36 8,-42"/>
      <path d="M-5,-22 C-9,-30 -8,-38 -5,-40"/>
    </g>

    <!-- STRAWBERRY large -->
    <g transform="translate(318,198) rotate(-16)">
      <path d="M0,-18 C12,-18 20,-8 20,4 C20,14 10,24 0,28 C-10,24 -20,14 -20,4 C-20,-8 -12,-18 0,-18 Z"/>
      <ellipse cx="-8" cy="-2" rx="1.5" ry="2"/>
      <ellipse cx="8" cy="-2" rx="1.5" ry="2"/>
      <ellipse cx="0" cy="-9" rx="1.5" ry="2"/>
      <ellipse cx="-10" cy="8" rx="1.5" ry="2"/>
      <ellipse cx="10" cy="8" rx="1.5" ry="2"/>
      <ellipse cx="0" cy="15" rx="1.5" ry="2"/>
      <path d="M-6,-18 C-10,-26 -4,-30 -2,-22"/>
      <path d="M0,-18 C0,-28 0,-32 0,-24"/>
      <path d="M6,-18 C10,-26 4,-30 2,-22"/>
      <path d="M-10,-14 C-16,-22 -10,-28 -8,-20"/>
      <path d="M10,-14 C16,-22 10,-28 8,-20"/>
    </g>

    <!-- PEAR large -->
    <g transform="translate(65,325) rotate(8)">
      <path d="M0,-28 C6,-28 10,-22 10,-14 C10,-8 6,-4 8,6 C10,16 8,26 0,28 C-8,26 -10,16 -8,6 C-6,-4 -10,-8 -10,-14 C-10,-22 -6,-28 0,-28 Z"/>
      <path d="M0,-28 L0,-34"/>
      <path d="M0,-32 Q6,-36 8,-30 Q4,-28 0,-32"/>
    </g>

    <!-- BLUEBERRY CLUSTER -->
    <g transform="translate(205,295)">
      <circle cx="0" cy="-8" r="7"/>
      <circle cx="-10" cy="2" r="7"/>
      <circle cx="10" cy="2" r="7"/>
      <circle cx="0" cy="12" r="7"/>
      <path d="M-2,-15 L0,-19 L2,-15"/>
      <path d="M-12,-5 L-10,-9 L-8,-5"/>
      <path d="M8,-5 L10,-9 L12,-5"/>
      <path d="M-2,5 L0,1 L2,5"/>
    </g>

    <!-- FISH large -->
    <g transform="translate(252,230) rotate(-10)">
      <path d="M-22,0 C-22,-16 14,-18 22,0 C14,18 -22,16 -22,0 Z"/>
      <path d="M-22,0 L-36,-16 L-38,0 L-36,16 Z"/>
      <circle cx="10" cy="-5" r="3.5"/>
      <path d="M-4,-18 C2,-28 14,-26 16,-18"/>
      <path d="M0,-17 Q2,-8 0,17" stroke-width="1.2"/>
    </g>

    <!-- TOMATO large -->
    <g transform="translate(340,350) rotate(6)">
      <path d="M0,-14 C12,-14 22,-4 22,8 C22,20 12,26 0,26 C-12,26 -22,20 -22,8 C-22,-4 -12,-14 0,-14 Z"/>
      <path d="M-4,-14 C-8,-24 -18,-22 -16,-15"/>
      <path d="M-4,-14 C-16,-12 -18,-4 -10,-2"/>
      <path d="M0,-14 L0,-26"/>
      <path d="M4,-14 C8,-24 18,-22 16,-15"/>
      <path d="M4,-14 C16,-12 18,-4 10,-2"/>
    </g>

    <!-- CHERRY PAIR -->
    <g transform="translate(168,370)">
      <circle cx="-10" cy="10" r="9"/>
      <circle cx="10" cy="10" r="9"/>
      <path d="M-10,1 L0,-16"/>
      <path d="M10,1 L0,-16"/>
      <path d="M0,-16 L0,-24"/>
      <path d="M0,-20 Q6,-24 8,-18 Q4,-16 0,-20"/>
    </g>

    <!-- LEMON large -->
    <g transform="translate(443,295) rotate(20)">
      <path d="M-22,0 C-22,-12 -12,-18 0,-18 C12,-18 22,-12 22,0 C22,12 12,18 0,18 C-12,18 -22,12 -22,0 Z"/>
      <path d="M-22,0 Q-29,-5 -27,0 Q-29,5 -22,0"/>
      <path d="M22,0 Q29,-5 27,0 Q29,5 22,0"/>
      <path d="M6,-16 Q12,-22 15,-16 Q10,-12 6,-16"/>
      <path d="M8,-16 L6,-24"/>
    </g>

    <!-- SPARKLE large -->
    <g transform="translate(185,155)">
      <path d="M0,-9 L2.2,-2.2 L9,0 L2.2,2.2 L0,9 L-2.2,2.2 L-9,0 L-2.2,-2.2 Z"/>
    </g>

    <!-- SPARKLE small -->
    <g transform="translate(398,272)">
      <path d="M0,-6 L1.5,-1.5 L6,0 L1.5,1.5 L0,6 L-1.5,1.5 L-6,0 L-1.5,-1.5 Z"/>
    </g>

    <!-- DIAMOND -->
    <g transform="translate(290,308)">
      <path d="M0,-10 L8,0 L0,10 L-8,0 Z"/>
      <path d="M-8,0 L-4,-10 L4,-10 L8,0"/>
    </g>

    <!-- SMALL AVOCADO -->
    <g transform="translate(460,52) rotate(18) scale(0.62)">
      <path d="M0,-30 C14,-30 24,-18 24,0 C24,16 14,28 0,30 C-14,28 -24,16 -24,0 C-24,-18 -14,-30 0,-30 Z"/>
      <path d="M0,-12 C8,-12 14,-6 14,4 C14,14 8,20 0,21 C-8,20 -14,14 -14,4 C-14,-6 -8,-12 0,-12 Z"/>
      <ellipse cx="0" cy="11" rx="5" ry="6"/>
    </g>

    <!-- SMALL BANANA -->
    <g transform="translate(22,168) rotate(-22) scale(0.58)">
      <path d="M-24,10 C-26,-10 -14,-28 2,-32 C18,-34 30,-22 32,-10 C34,0 26,12 14,16"/>
      <path d="M-24,10 C-16,20 0,22 14,16"/>
    </g>

    <!-- SMALL CARROT -->
    <g transform="translate(462,348) rotate(-18) scale(0.52)">
      <path d="M-11,-22 Q-10,0 0,28 Q10,0 11,-22 Q0,-24 -11,-22 Z"/>
      <path d="M-2,-22 C-6,-32 -14,-36 -8,-42"/>
      <path d="M0,-22 C0,-34 0,-40 0,-44"/>
      <path d="M2,-22 C6,-32 14,-36 8,-42"/>
    </g>

    <!-- SMALL APPLE -->
    <g transform="translate(158,82) rotate(16) scale(0.58)">
      <path d="M-4,-18 C-14,-18 -22,-10 -22,2 C-22,16 -12,24 0,24 C12,24 22,16 22,2 C22,-10 14,-18 4,-18 Q2,-22 0,-20 Q-2,-22 -4,-18"/>
      <path d="M1,-20 L2,-27"/>
      <path d="M2,-26 Q8,-29 9,-23 Q5,-21 2,-26"/>
    </g>

    <!-- SMALL STRAWBERRY -->
    <g transform="translate(420,310) rotate(20) scale(0.55)">
      <path d="M0,-18 C12,-18 20,-8 20,4 C20,14 10,24 0,28 C-10,24 -20,14 -20,4 C-20,-8 -12,-18 0,-18 Z"/>
      <ellipse cx="-8" cy="-2" rx="1.5" ry="2"/>
      <ellipse cx="8" cy="-2" rx="1.5" ry="2"/>
      <ellipse cx="0" cy="10" rx="1.5" ry="2"/>
      <path d="M-5,-18 C-8,-24 -4,-28 -2,-22"/>
      <path d="M0,-18 C0,-26 0,-30 0,-24"/>
      <path d="M5,-18 C8,-24 4,-28 2,-22"/>
    </g>

    <!-- SMALL PEAR -->
    <g transform="translate(380,130) rotate(-25) scale(0.55)">
      <path d="M0,-28 C6,-28 10,-22 10,-14 C10,-8 6,-4 8,6 C10,16 8,26 0,28 C-8,26 -10,16 -8,6 C-6,-4 -10,-8 -10,-14 C-10,-22 -6,-28 0,-28 Z"/>
      <path d="M0,-28 L0,-34"/>
    </g>

    <!-- SMALL FISH -->
    <g transform="translate(50,385) rotate(15) scale(0.52)">
      <path d="M-22,0 C-22,-16 14,-18 22,0 C14,18 -22,16 -22,0 Z"/>
      <path d="M-22,0 L-36,-16 L-38,0 L-36,16 Z"/>
      <circle cx="10" cy="-5" r="3.5"/>
    </g>

    <!-- SMALL TOMATO -->
    <g transform="translate(297,122) rotate(-14) scale(0.52)">
      <path d="M0,-14 C12,-14 22,-4 22,8 C22,20 12,26 0,26 C-12,26 -22,20 -22,8 C-22,-4 -12,-14 0,-14 Z"/>
      <path d="M-3,-14 C-6,-22 -14,-20 -12,-15"/>
      <path d="M0,-14 L0,-24"/>
      <path d="M3,-14 C6,-22 14,-20 12,-15"/>
    </g>

    <!-- SMALL CHERRY -->
    <g transform="translate(340,238) scale(0.6)">
      <circle cx="-8" cy="8" r="8"/>
      <circle cx="8" cy="8" r="8"/>
      <path d="M-8,0 L0,-14"/>
      <path d="M8,0 L0,-14"/>
      <path d="M0,-14 L0,-20"/>
    </g>

    <!-- DOT TRIO -->
    <g transform="translate(140,150)">
      <circle cx="-6" cy="0" r="2.2"/>
      <circle cx="0" cy="0" r="2.2"/>
      <circle cx="6" cy="0" r="2.2"/>
    </g>

    <!-- SMALL SPARKLE -->
    <g transform="translate(48,240)">
      <path d="M0,-5 L1.2,-1.2 L5,0 L1.2,1.2 L0,5 L-1.2,1.2 L-5,0 L-1.2,-1.2 Z"/>
    </g>

    <!-- SMALL SPARKLE -->
    <g transform="translate(260,170)">
      <path d="M0,-5 L1.2,-1.2 L5,0 L1.2,1.2 L0,5 L-1.2,1.2 L-5,0 L-1.2,-1.2 Z"/>
    </g>

  </g>
</svg>
